<svg width="649" height="611" viewBox="0 0 649 611" fill="none" xmlns="http://www.w3.org/2000/svg">
<g clip-path="url(#clip0)">
<path d="M471.177 346.718V515.502L499.415 561.513L501.565 565.013H612.985L615.236 346.718H471.177Z" fill="#E6E6E6"/>
<path opacity="0.1" d="M471.177 346.718V515.502L499.415 561.513L501.148 346.718H471.177Z" fill="black"/>
<path d="M202.192 342.216V511.002L173.954 557.012L171.805 560.511H60.384L58.1327 342.216H202.192Z" fill="#E6E6E6"/>
<path opacity="0.1" d="M202.192 342.216V511.002L173.954 557.013L172.221 342.216H202.192Z" fill="black"/>
<path d="M649 338.841V348.968H43.5016V334.34L99.7745 305.084H599.48L649 338.841Z" fill="#E6E6E6"/>
<path opacity="0.1" d="M649 338.841V348.968H43.5016V334.34L649 338.841Z" fill="black"/>
<path d="M130.163 371.913H103.151L91.8964 364.037H142.542L130.163 371.913Z" fill="#3F3D56"/>
<path d="M130.163 422.108H103.151L91.8964 414.232H142.542L130.163 422.108Z" fill="#3F3D56"/>
<path d="M130.163 468.243H103.151L91.8964 460.366H142.542L130.163 468.243Z" fill="#3F3D56"/>
<path d="M130.163 514.377H103.151L91.8964 506.501H142.542L130.163 514.377Z" fill="#3F3D56"/>
<path d="M543.206 376.414H570.218L581.473 368.537H530.827L543.206 376.414Z" fill="#3F3D56"/>
<path d="M543.206 426.609H570.218L581.473 418.732H530.827L543.206 426.609Z" fill="#3F3D56"/>
<path d="M543.206 472.744H570.218L581.473 464.867H530.827L543.206 472.744Z" fill="#3F3D56"/>
<path d="M543.206 518.878H570.218L581.473 511.002H530.827L543.206 518.878Z" fill="#3F3D56"/>
<path d="M561.601 109.901H334.205C333.075 109.901 331.957 110.123 330.913 110.555C329.87 110.987 328.922 111.621 328.123 112.419C327.325 113.217 326.691 114.165 326.259 115.209C325.827 116.252 325.605 117.37 325.605 118.499V271.648C325.605 272.777 325.827 273.895 326.259 274.938C326.691 275.982 327.325 276.93 328.123 277.728C328.922 278.526 329.87 279.16 330.913 279.592C331.957 280.024 333.075 280.246 334.205 280.246H420.526L417.292 300.89C417.292 300.89 398.81 310.706 411.805 310.995C424.8 311.283 486.021 310.995 486.021 310.995C486.021 310.995 497.861 310.995 479.091 300.601L476.049 280.246H561.601C562.73 280.246 563.848 280.024 564.892 279.592C565.935 279.16 566.883 278.526 567.682 277.728C568.481 276.93 569.114 275.982 569.546 274.938C569.978 273.895 570.201 272.777 570.201 271.648V118.499C570.201 117.37 569.978 116.252 569.546 115.209C569.114 114.165 568.481 113.217 567.682 112.419C566.883 111.621 565.935 110.987 564.892 110.555C563.848 110.123 562.73 109.901 561.601 109.901Z" fill="#3F3D56"/>
<path d="M561.97 118.996H333.835V246.61H561.97V118.996Z" fill="#F2F2F2"/>
<path d="M447.903 116.397C448.7 116.397 449.346 115.751 449.346 114.954C449.346 114.156 448.7 113.51 447.903 113.51C447.105 113.51 446.459 114.156 446.459 114.954C446.459 115.751 447.105 116.397 447.903 116.397Z" fill="#F2F2F2"/>
<path d="M447.903 274.039C450.933 274.039 453.389 271.582 453.389 268.553C453.389 265.523 450.933 263.067 447.903 263.067C444.872 263.067 442.416 265.523 442.416 268.553C442.416 271.582 444.872 274.039 447.903 274.039Z" fill="#F2F2F2"/>
<path d="M439.353 326.586V329.473H283.99V327.163L284.203 326.586L288.032 316.192H436.176L439.353 326.586Z" fill="#3F3D56"/>
<path d="M499.141 323.759C498.858 324.969 497.79 326.245 495.376 327.452C486.712 331.783 469.097 326.297 469.097 326.297C469.097 326.297 455.524 323.987 455.524 317.924C455.905 317.663 456.303 317.427 456.714 317.217C460.356 315.29 472.433 310.536 493.846 317.418C495.424 317.913 496.833 318.836 497.917 320.085C498.397 320.557 498.758 321.136 498.971 321.775C499.184 322.413 499.242 323.093 499.141 323.759Z" fill="#3F3D56"/>
<path opacity="0.1" d="M499.141 323.759C488.537 327.821 479.086 328.124 469.385 321.389C465.717 318.677 461.276 317.215 456.714 317.217C460.356 315.29 472.433 310.536 493.846 317.418C495.424 317.913 496.833 318.836 497.917 320.085C498.397 320.557 498.758 321.136 498.971 321.775C499.184 322.413 499.242 323.093 499.141 323.759Z" fill="black"/>
<path d="M485.846 321.389C487.919 321.389 489.6 320.872 489.6 320.234C489.6 319.596 487.919 319.079 485.846 319.079C483.772 319.079 482.092 319.596 482.092 320.234C482.092 320.872 483.772 321.389 485.846 321.389Z" fill="#F2F2F2"/>
<path opacity="0.1" d="M439.353 326.586V329.473H283.99V327.163L284.203 326.586H439.353Z" fill="black"/>
<path d="M74.9554 68.3414C74.9554 68.3414 78.1068 94.598 66.5516 96.6986C54.9963 98.7991 77.0564 134.508 77.0564 134.508L129.58 140.81L116.975 98.7991C116.975 98.7991 108.571 95.6483 113.823 74.643C119.076 53.6377 74.9554 68.3414 74.9554 68.3414Z" fill="#FFB8B8"/>
<path d="M42.9158 519.43L47.1181 577.195H69.1773L62.8752 519.43H42.9158Z" fill="#FFB8B8"/>
<path d="M204.689 410.203L207.84 458.515L232.002 448.012L222.547 408.102L204.689 410.203Z" fill="#FFB8B8"/>
<path d="M27.1586 298.875C27.1586 298.875 28.2091 359.79 34.512 379.745C40.8149 399.7 39.7644 400.75 38.7139 403.901C37.6635 407.052 36.613 404.951 36.613 410.203C36.613 415.454 34.512 498.425 36.613 505.777C38.7139 513.129 30.3101 568.726 36.613 569.777C42.9158 570.827 72.3292 569.777 73.3797 563.475C74.4302 557.174 64.9759 512.079 69.1778 507.877C73.3797 503.676 79.6826 417.555 79.6826 417.555L94.3893 357.69L121.702 326.182H179.478L197.336 395.499C197.336 395.499 200.986 446.15 206.238 446.15C211.49 446.15 229.508 439.307 229.508 428.359C229.508 405.253 221.497 307.277 219.396 305.176C217.295 303.076 220.447 295.724 217.295 292.573C214.144 289.422 177.377 267.367 163.721 263.166C150.065 258.965 130.907 253.964 130.907 253.964L27.1586 298.875Z" fill="#2F2E41"/>
<path d="M232.002 439.61C232.002 439.61 216.245 434.359 208.891 450.113C201.538 465.867 204.689 470.068 204.689 470.068C204.689 470.068 228.85 478.47 233.052 474.269C234.881 472.441 240.686 471.806 246.661 471.672C255.762 471.468 258.183 458.595 249.588 455.597C249.332 455.508 249.072 455.43 248.81 455.364C240.406 453.264 232.002 439.61 232.002 439.61Z" fill="#2F2E41"/>
<path d="M57.6225 109.827C57.6225 109.827 109.096 120.33 121.702 103.525C134.307 86.7211 139.56 150.787 139.56 150.787L145.863 218.004L136.408 254.763C136.408 254.763 87.0359 294.674 71.2787 297.824C55.5216 300.975 31.3605 303.076 31.3605 303.076C31.3605 303.076 38.7139 186.496 38.7139 184.396C38.7139 182.295 57.6225 109.827 57.6225 109.827Z" fill="#6C63FF"/>
<path d="M73.2768 90.1296C73.2768 90.1296 61.8244 83.5703 58.6729 89.8719C55.5215 96.1735 26.1081 111.927 22.9567 111.927C19.8052 111.927 29.2596 199.099 25.0576 209.602C20.8557 220.105 0.896644 296.774 12.4519 303.076C24.0072 309.377 15.6033 296.774 27.1586 312.528C38.7139 328.282 95.4397 328.282 98.5911 321.98C101.743 315.679 73.3796 268.417 78.632 224.306C83.8844 180.195 92.2882 119.279 84.9349 110.877C77.5816 102.475 73.2768 90.1296 73.2768 90.1296Z" fill="#2F2E41"/>
<path d="M111.197 97.2237L112.66 92.1893C112.66 92.1893 156.367 106.676 158.468 116.129C160.569 125.581 159.519 191.748 152.166 196.999C144.812 202.25 134.307 210.652 141.661 223.256C149.014 235.859 157.418 249.512 163.721 250.562C170.024 251.613 181.579 258.965 178.428 266.316C175.276 273.668 137.459 260.015 137.459 260.015C137.459 260.015 112.247 241.11 113.298 211.703C114.348 182.295 111.197 97.2237 111.197 97.2237Z" fill="#2F2E41"/>
<path d="M147.964 221.155L122.752 268.417C122.752 268.417 85.9854 306.226 106.995 310.428C128.005 314.629 139.56 275.769 139.56 275.769L166.872 236.909L147.964 221.155Z" fill="#FFB8B8"/>
<path d="M86.3841 0.00011613C84.8073 -0.129317 83.2284 0.22332 81.8566 1.0113C80.5097 1.93352 79.6608 3.54917 78.7942 5.05262C75.481 10.8696 70.9956 15.9352 65.6221 19.9285C61.7082 22.7952 56.7322 26.3696 57.4019 31.655C57.7551 33.4004 58.4001 35.0739 59.3096 36.605C62.9203 43.8922 72.7731 49.5236 71.804 57.8388C75.3912 51.8345 70.593 48.8656 74.1803 42.8614C75.8886 40.002 78.8563 36.7743 81.4356 38.57C82.2992 39.1713 82.8663 40.2497 83.7655 40.7772C85.9111 42.036 88.1938 39.6294 90.0931 37.9248C96.6423 32.0468 105.956 33.5867 114.106 35.4181C117.954 36.2828 122.18 37.4172 124.454 41.0937C127.445 45.9277 121.613 51.1484 120.139 56.6137C120.019 57.0793 120.014 57.5672 120.123 58.0356C120.232 58.504 120.454 58.9388 120.768 59.3031C121.082 59.6673 121.48 59.9501 121.927 60.1271C122.374 60.3042 122.858 60.3703 123.336 60.3198C125.782 60.0787 128.678 59.881 128.823 58.8081C131.9 58.9176 135.67 58.5692 136.988 55.3662C137.391 54.0988 137.604 52.7789 137.62 51.4492C138.104 46.0688 140.388 41.1602 141.901 36.0393C143.414 30.9184 144.072 24.917 141.519 20.3768C140.607 18.8661 139.48 17.4966 138.173 16.3116C123.683 2.29141 104.631 -0.0206951 86.3841 0.00011613Z" fill="#2F2E41"/>
<path d="M98.5911 85.6707C115.996 85.6707 130.106 71.5642 130.106 54.1628C130.106 36.7614 115.996 22.6548 98.5911 22.6548C81.1862 22.6548 67.0768 36.7614 67.0768 54.1628C67.0768 71.5642 81.1862 85.6707 98.5911 85.6707Z" fill="#FFB8B8"/>
<path d="M87.9193 8.2441C86.649 8.15 85.3767 8.39673 84.2337 8.9588C83.2003 9.71339 82.3486 10.6893 81.7408 11.8152C78.9389 16.029 75.2865 19.6104 71.0181 22.3294C67.8321 24.3555 63.7814 26.8818 64.3266 30.6175C64.6225 31.87 65.1491 33.0565 65.8796 34.1162C68.8289 39.3188 70.003 45.3402 69.2243 51.2694L77.9849 38.5382C79.3756 36.5172 81.7914 34.2359 83.891 35.5051C84.5941 35.93 85.0557 36.6922 85.7877 37.0651C87.5343 37.9548 89.3925 36.2539 90.9386 35.0491C96.27 30.8945 103.852 31.9829 110.486 33.2773C113.618 33.8885 117.058 34.6902 118.91 37.2888C121.987 41.6072 118.774 47.8469 120.57 52.8357C121.072 52.4838 121.499 52.0346 121.825 51.5147C122.151 50.9949 122.369 50.4149 122.466 49.8092C124.971 49.8866 128.04 49.6404 129.113 47.3764C129.439 46.4892 129.613 45.5532 129.627 44.6079C130.021 40.8051 131.881 37.3357 133.112 33.7163C134.344 30.0969 134.88 25.8552 132.801 22.6461C132.041 21.5588 131.123 20.5905 130.078 19.7729C118.282 9.86356 102.773 8.22939 87.9193 8.2441Z" fill="#2F2E41"/>
<path d="M147.964 111.927L157.751 114.525C157.751 114.525 180.528 172.843 175.276 212.753C170.024 252.663 166.872 244.261 166.872 244.261C166.872 244.261 158.468 225.356 139.56 229.557L147.964 111.927Z" fill="#2F2E41"/>
<path d="M44.3712 569.561C41.838 573.002 42.3459 577.922 40.102 581.559C38.1569 584.711 34.4912 586.364 32.0583 589.158C31.282 590.086 30.59 591.081 29.9903 592.132C27.7335 595.912 25.8991 600.756 28.1218 604.555C29.9098 607.612 33.6682 608.807 37.115 609.621C41.4716 610.65 45.9982 611.474 50.4051 610.687C54.812 609.901 59.119 607.203 60.6903 603.012C60.9991 601.958 61.3662 600.922 61.79 599.909C64.1785 595.208 71.6707 595.157 74.1152 590.484C75.826 587.214 74.2534 583.262 72.6814 579.923L67.8804 569.725C66.2871 566.341 59.8283 568.287 56.4612 567.476C52.0697 566.419 47.5304 565.253 44.3712 569.561Z" fill="#2F2E41"/>
<path d="M9.30048 242.16L53.4206 310.427C53.4206 310.427 80.733 345.086 89.1368 329.332C97.5406 313.578 59.7234 287.322 59.7234 287.322L31.3605 234.808L9.30048 242.16Z" fill="#FFB8B8"/>
<path d="M31.3605 114.028L22.9567 111.927C22.9567 111.927 6.14906 117.179 1.94715 139.234C-2.25476 161.29 0.896664 249.512 6.14905 250.562C11.4014 251.613 32.0906 235.201 35.4022 238.681C38.7139 242.16 28.2091 224.306 31.3605 214.853C34.5119 205.401 31.3605 114.028 31.3605 114.028Z" fill="#2F2E41"/>
<path d="M426.31 160.909H399.159V167.443H426.31V160.909Z" fill="#6C63FF"/>
<path d="M520.332 160.909H510.779V167.443H520.332V160.909Z" fill="#6C63FF"/>
<path d="M539.438 160.909H529.885V167.443H539.438V160.909Z" fill="#6C63FF"/>
<path d="M500.723 160.909H435.863V167.443H500.723V160.909Z" fill="#6C63FF"/>
<path d="M392.12 203.134H364.969V209.669H392.12V203.134Z" fill="#6C63FF"/>
<path d="M486.142 203.134H476.589V209.669H486.142V203.134Z" fill="#6C63FF"/>
<path d="M505.248 203.134H495.695V209.669H505.248V203.134Z" fill="#6C63FF"/>
<path d="M466.533 203.134H401.673V209.669H466.533V203.134Z" fill="#6C63FF"/>
<path d="M504.242 175.487H477.092V182.021H504.242V175.487Z" fill="#6C63FF"/>
<path d="M540.946 175.487H513.795V182.021H540.946V175.487Z" fill="#6C63FF"/>
<path d="M374.522 175.487H364.969V182.021H374.522V175.487Z" fill="#6C63FF"/>
<path d="M393.628 175.487H384.075V182.021H393.628V175.487Z" fill="#6C63FF"/>
<path d="M468.041 175.487H403.181V182.021H468.041V175.487Z" fill="#6C63FF"/>
<path d="M447.93 189.562H420.779V196.097H447.93V189.562Z" fill="#6C63FF"/>
<path d="M411.226 189.562H384.075V196.097H411.226V189.562Z" fill="#6C63FF"/>
<path d="M374.522 189.562H364.969V196.097H374.522V189.562Z" fill="#6C63FF"/>
<path d="M540.946 189.562H531.393V196.097H540.946V189.562Z" fill="#6C63FF"/>
<path d="M521.84 189.562H456.98V196.097H521.84V189.562Z" fill="#6C63FF"/>
</g>
<defs>
<clipPath id="clip0">
<rect width="649" height="611" fill="white"/>
</clipPath>
</defs>
</svg>
