<svg width="1920" height="570" viewBox="0 0 1920 570" fill="none" xmlns="http://www.w3.org/2000/svg">
<rect width="1920" height="565" fill="#6C63FF"/>
<path d="M0 410L53.3333 404.7C106.667 399 213.333 389 320 415.3C426.667 442 533.333 506 640 484.7C746.667 463 853.333 357 960 319.3C1066.67 282 1173.33 314 1280 335.3C1386.67 357 1493.33 367 1600 356.7C1706.67 346 1813.33 314 1866.67 298L1920 282V570H1866.67C1813.33 570 1706.67 570 1600 570C1493.33 570 1386.67 570 1280 570C1173.33 570 1066.67 570 960 570C853.333 570 746.667 570 640 570C533.333 570 426.667 570 320 570C213.333 570 106.667 570 53.3333 570H0V410Z" fill="white"/>
</svg>
